<?xml version="1.0" encoding="utf-8"?>
<!-- Generator: Adobe Illustrator 20.0.0, SVG Export Plug-In . SVG Version: 6.00 Build 0)  -->
<svg version="1.1" xmlns="http://www.w3.org/2000/svg" xmlns:xlink="http://www.w3.org/1999/xlink" x="0px" y="0px"
	 viewBox="0 0 255.2 93.1" style="enable-background:new 0 0 255.2 93.1;" xml:space="preserve">
<style type="text/css">
	.st0{fill:#00438C;}
	.st1{fill:url(#SVGID_1_);}
	.st2{fill:#B8232F;}
</style>
<g id="Layer_1">
</g>
<g id="Layer_2">
	<path class="st0" d="M81.5,50.9v35.8H69.1V4.9h45.2v10.6H81.5v24.7V50.9z"/>
	<path class="st0" d="M117.7,86.7V4.9h12.4v71.1h36v10.6H117.7z"/>
	<linearGradient id="SVGID_1_" gradientUnits="userSpaceOnUse" x1="-5.1634" y1="69.9911" x2="105.0645" y2="25.4562">
		<stop  offset="0" style="stop-color:#5AA3D2"/>
		<stop  offset="0.1258" style="stop-color:#4587BE"/>
		<stop  offset="0.3484" style="stop-color:#2360A1"/>
		<stop  offset="0.5122" style="stop-color:#044B92"/>
		<stop  offset="0.5982" style="stop-color:#00438C"/>
		<stop  offset="0.6214" style="stop-color:#38417E"/>
		<stop  offset="0.678" style="stop-color:#6E3A64"/>
		<stop  offset="0.7288" style="stop-color:#8F334E"/>
		<stop  offset="0.7718" style="stop-color:#A62B3E"/>
		<stop  offset="0.8054" style="stop-color:#B32533"/>
		<stop  offset="0.8255" style="stop-color:#B8232F"/>
	</linearGradient>
	<path class="st1" d="M113.3,45.8c0,0-25.3-2.1-52.7,4.8l-0.8-1.9c12.1-2.7,27.2-4.6,45.6-4.6c0,0-22.4-1.6-46.4,2.7l-0.5-1.2
		c11.2-1.9,24.8-3.1,40.8-3c0,0-18.9-1.6-41.4,1.7L40.9,3.8h-4.5L1.6,86.7h12.2l0.1-0.3l0,0.1c0,0,10.6-15.8,37.7-27.7l2.9,6.7
		l8.8,21.1h12.6l-13.5-32C75.9,50,92.7,46.5,113.3,45.8z M28.4,51.7l6.5-16c1.2-2.7,2.6-6.5,3.5-10h0.3c1,3.5,2.3,7.3,3.5,10
		l4.3,10.8C40.4,47.8,34.3,49.5,28.4,51.7z M27.1,55.1c4.9-2.5,11.5-4.9,20-7l0.6,1.5c-7.6,2-15,4.8-21.7,8.2l0.9-2.1L27.1,55.1z
		 M49.5,54c-10,3.5-19.8,8.3-28.4,15.1l1.5-3.5l0.4-1c4.3-3.7,12.6-8.7,25.6-12.8L49.5,54z"/>
	<g>
		<path class="st2" d="M148.9,26.2l-1.5-3.6H142l-1.4,3.6h-1.3l5.3-13h0.4l5.3,13H148.9z M145.5,17.6c-0.2-0.6-0.5-1.3-0.7-2h0
			c-0.2,0.7-0.5,1.4-0.7,2l-1.5,3.9h4.5L145.5,17.6z"/>
		<path class="st2" d="M157.9,26.4c-3.6,0-6.8-2.5-6.8-6.6c0-4.1,3.3-6.6,6.8-6.6c1.7,0,3.1,0.4,4,1l-0.3,1.2c-0.9-0.6-2.2-1-3.6-1
			c-2.9,0-5.5,2.1-5.5,5.5c0,3.4,2.6,5.4,5.6,5.4c1.4,0,2.6-0.4,3.3-0.9v-3.2h-3.4v-1.1h4.7V25C161.4,25.9,159.8,26.4,157.9,26.4z"
			/>
		<path class="st2" d="M172.9,26.2l-4.3-5.8h-2.2v5.8H165V13.4h3.6c1.9,0,3.7,1.3,3.7,3.5c0,1.7-1.1,2.9-2.5,3.3l4.5,6H172.9z
			 M168.5,14.6h-2.1v4.6h2.2c1.3,0,2.5-0.8,2.5-2.3C171.1,15.5,169.9,14.6,168.5,14.6z"/>
		<path class="st2" d="M175.9,26.2V13.4h1.3v12.8H175.9z"/>
		<path class="st2" d="M190.1,15.3c-0.7-0.5-2-0.9-3.4-0.9c-2.9,0-5.5,2.1-5.5,5.4c0,3.4,2.6,5.4,5.5,5.4c1.5,0,2.7-0.3,3.6-0.9
			l-0.3,1.4c-0.8,0.4-1.8,0.7-3.4,0.7c-3.4,0-6.8-2.5-6.8-6.6c0-4.1,3.4-6.6,6.8-6.6c1.6,0,2.9,0.4,3.8,0.9L190.1,15.3z"/>
		<path class="st2" d="M197.3,26.4c-3,0-5-1.7-5-4.6v-8.3h1.3v8.2c0,2.2,1.3,3.6,3.7,3.6c2.3,0,3.7-1.3,3.7-3.6v-8.2h1.3v8.3
			C202.3,24.7,200.3,26.4,197.3,26.4z"/>
		<path class="st2" d="M205,26.2V13.4h1.3V25h5.9v1.2H205z"/>
		<path class="st2" d="M216.9,14.6v11.6h-1.3V14.6h-4.4v-1.2h10.1v1.2H216.9z"/>
		<path class="st2" d="M227.8,26.4c-3,0-5-1.7-5-4.6v-8.3h1.3v8.2c0,2.2,1.3,3.6,3.7,3.6c2.3,0,3.7-1.3,3.7-3.6v-8.2h1.3v8.3
			C232.8,24.7,230.8,26.4,227.8,26.4z"/>
		<path class="st2" d="M243.4,26.2l-4.3-5.8h-2.2v5.8h-1.3V13.4h3.6c1.9,0,3.7,1.3,3.7,3.5c0,1.7-1.1,2.9-2.5,3.3l4.5,6H243.4z
			 M239,14.6h-2.1v4.6h2.2c1.3,0,2.5-0.8,2.5-2.3C241.6,15.5,240.4,14.6,239,14.6z"/>
		<path class="st2" d="M246.1,26.2V13.4h6.7v1.2h-5.3v4.6h4.4v1.2h-4.4V25h6v1.2H246.1z"/>
		<path class="st2" d="M149,46.2l-1.4-1.4c-1,1-2.4,1.7-4.1,1.7c-2.3,0-3.9-1.6-3.9-3.3c0-1.6,0.9-2.7,2.6-3.7
			c-1.2-1.1-1.8-2.1-1.8-3.2c0-1.9,1.6-3,3.1-3c1.6,0,3.2,1.1,3.2,3c0,1.4-1.1,2.5-2.7,3.4l3.4,3.4c0.6-0.8,1.1-1.8,1.4-2.9l0.9,0.9
			c-0.3,1-0.8,2-1.5,2.9l2.4,2.3H149z M143,40.2c-1.4,0.8-2.1,1.6-2.1,2.8c0,1.2,1.2,2.3,2.6,2.3c1.2,0,2.3-0.5,3.2-1.4L143,40.2z
			 M143.5,34.3c-1,0-1.9,0.9-1.9,1.9c0,0.8,0.5,1.5,1.6,2.6c1.5-0.8,2.3-1.7,2.3-2.6C145.6,35.2,144.7,34.3,143.5,34.3z"/>
		<path class="st2" d="M158,34.6v4.6h4.6v1.2H158v5.8h-1.3V33.4h6.8v1.2H158z"/>
		<path class="st2" d="M171.3,46.4c-3.5,0-6.7-2.6-6.7-6.6c0-3.9,3.2-6.6,6.7-6.6c3.5,0,6.7,2.6,6.7,6.6
			C178,43.8,174.8,46.4,171.3,46.4z M171.3,34.4c-2.8,0-5.3,2.1-5.3,5.4c0,3.3,2.5,5.4,5.3,5.4c2.8,0,5.3-2.2,5.3-5.4
			C176.6,36.5,174.1,34.4,171.3,34.4z"/>
		<path class="st2" d="M186.3,46.4c-3.5,0-6.7-2.6-6.7-6.6c0-3.9,3.2-6.6,6.7-6.6c3.5,0,6.7,2.6,6.7,6.6
			C193,43.8,189.9,46.4,186.3,46.4z M186.3,34.4c-2.8,0-5.3,2.1-5.3,5.4c0,3.3,2.5,5.4,5.3,5.4c2.8,0,5.3-2.2,5.3-5.4
			C191.7,36.5,189.1,34.4,186.3,34.4z"/>
		<path class="st2" d="M198.6,46.2h-3.3V33.4h3.3c3.9,0,7.1,2.3,7.1,6.4C205.7,43.9,202.4,46.2,198.6,46.2z M198.4,34.6h-1.8V45h1.8
			c3.4,0,5.9-1.8,5.9-5.2C204.3,36.4,201.7,34.6,198.4,34.6z"/>
		<path class="st2" d="M140.1,66.2V53.4h1.3V65h5.9v1.2H140.1z"/>
		<path class="st2" d="M158,66.2l-1.5-3.6h-5.4l-1.4,3.6h-1.3l5.3-13h0.4l5.3,13H158z M154.6,57.6c-0.2-0.6-0.5-1.3-0.7-2h0
			c-0.2,0.7-0.5,1.4-0.7,2l-1.5,3.9h4.5L154.6,57.6z"/>
		<path class="st2" d="M165.1,66.2h-3.9V53.4h3.1c1.8,0,3.4,1.2,3.4,3.2c0,1-0.5,2-1.4,2.4c1.4,0.3,2.7,1.7,2.7,3.4
			C169.2,64.8,167.2,66.2,165.1,66.2z M164.2,54.6h-1.6v4h1.7c1.2,0,2.2-0.7,2.2-2C166.5,55.3,165.5,54.6,164.2,54.6z M164.8,59.8
			h-2.2V65h2.3c1.5,0,2.9-1,2.9-2.6C167.8,60.7,166.4,59.8,164.8,59.8z"/>
		<path class="st2" d="M177.5,66.4c-3.5,0-6.7-2.6-6.7-6.6c0-3.9,3.2-6.6,6.7-6.6c3.5,0,6.7,2.6,6.7,6.6
			C184.2,63.8,181,66.4,177.5,66.4z M177.5,54.4c-2.8,0-5.3,2.1-5.3,5.4c0,3.3,2.5,5.4,5.3,5.4c2.8,0,5.3-2.2,5.3-5.4
			C182.8,56.5,180.3,54.4,177.5,54.4z"/>
		<path class="st2" d="M194.2,66.2l-4.3-5.8h-2.2v5.8h-1.3V53.4h3.6c1.9,0,3.7,1.3,3.7,3.5c0,1.7-1.1,2.9-2.5,3.3l4.5,6H194.2z
			 M189.8,54.6h-2.1v4.6h2.2c1.3,0,2.5-0.8,2.5-2.3C192.4,55.5,191.2,54.6,189.8,54.6z"/>
		<path class="st2" d="M205.7,66.2l-1.5-3.6h-5.4l-1.4,3.6h-1.3l5.3-13h0.4l5.3,13H205.7z M202.3,57.6c-0.2-0.6-0.5-1.3-0.7-2h0
			c-0.2,0.7-0.5,1.4-0.7,2l-1.5,3.9h4.5L202.3,57.6z"/>
		<path class="st2" d="M212,54.6v11.6h-1.3V54.6h-4.4v-1.2h10.1v1.2H212z"/>
		<path class="st2" d="M223.4,66.4c-3.5,0-6.7-2.6-6.7-6.6c0-3.9,3.2-6.6,6.7-6.6c3.5,0,6.7,2.6,6.7,6.6
			C230.1,63.8,226.9,66.4,223.4,66.4z M223.4,54.4c-2.8,0-5.3,2.1-5.3,5.4c0,3.3,2.5,5.4,5.3,5.4c2.8,0,5.3-2.2,5.3-5.4
			C228.7,56.5,226.2,54.4,223.4,54.4z"/>
		<path class="st2" d="M240.1,66.2l-4.3-5.8h-2.2v5.8h-1.3V53.4h3.6c1.9,0,3.7,1.3,3.7,3.5c0,1.7-1.1,2.9-2.5,3.3l4.5,6H240.1z
			 M235.7,54.6h-2.1v4.6h2.2c1.3,0,2.5-0.8,2.5-2.3C238.3,55.5,237.1,54.6,235.7,54.6z"/>
		<path class="st2" d="M246.6,60.3v5.9h-1.3v-5.9l-4.9-6.9h1.5l2.8,3.9c0.4,0.6,0.9,1.3,1.3,1.9h0c0.4-0.6,0.9-1.3,1.3-1.9l2.8-3.9
			h1.4L246.6,60.3z"/>
	</g>
</g>
</svg>
