<?xml version="1.0" encoding="utf-8"?>
<!-- Generator: Adobe Illustrator 21.0.2, SVG Export Plug-In . SVG Version: 6.00 Build 0)  -->
<svg version="1.1" id="Layer_1" xmlns="http://www.w3.org/2000/svg" xmlns:xlink="http://www.w3.org/1999/xlink" x="0px" y="0px"
	 viewBox="0 0 429.2 249.1" enable-background="new 0 0 429.2 249.1" xml:space="preserve">
<g>
	<path fill="#FFFFFF" stroke="#FFFFFF" stroke-width="0" d="M331.7,24.9c0,0-4.2-0.4-4.2,7.9l0,31c0,5.5,1.7,7.1,5.2,7.5
		c1.2,0.2-0.2,1.7-0.5,2c-0.2,0.2-7.5-0.8-15.5,0c-1,0.1-0.2-0.8-0.2-1.8s4.5-0.2,4.5-5.2l0-32.4c0-9.3-7-8.5-7-8.5s-1-2.2,3-2.2
		c1.8,0,10.4,0.2,14.8,0c1.1-0.1,1.1,0.2,0.8,0.8S332.5,24.8,331.7,24.9z"/>
	<path fill="#FFFFFF" stroke="#FFFFFF" stroke-width="0" d="M164.1,79.8l-16.4-44.5c-3.8-10-7.8-10.3-7.8-10.3s-0.8-1.8,3.2-1.8h16
		l-0.8,2.2c-2.5,0-5.2,2-3,8.8l10.2,29c0,0,7-17,9.5-24.8s1.5-10.8-2-12.5s-0.8-2.8-0.8-2.8h14.5v1.8c-3.8,0.5-6.2,9.8-7.8,14
		c-5.1,13.9-13,38.5-13.5,39.8C165.1,80,165.1,80.3,164.1,79.8z"/>
	<path fill="#FFFFFF" stroke="#FFFFFF" stroke-width="0" d="M219.1,100.5c-0.7,2.2-2.9,2.3-6.3,2.3c-3.8,0-8.8,0.8-8.8,0.8v-15h13.8
		c0,0,5.8,0.2,7,5.2s4,1.5,2.8-1.8s-1.2-8.8-1.2-8.8l-3.6,0.4h-30c-4,0-2.5,2.5-2.5,2.5s6.5-0.2,6.5,8.2l0,31.6c0,5-4,4.9-4.5,5.7
		c-1.2,2.3-0.4,2,1.2,2c0,0,18.9-0.5,29.9,0c1.5,0.1,3.5,1.2,4.5-0.5c1.2-2,1.8-11,1.8-11s-0.4-4-2.8,0c-2.3,3.9-2.2,7.2-11,7.2
		s-11.5-0.5-11.8-3.5c-0.2-3,0-18,0-18s1-1.5,4.2-1.5s5,0,5,0s4.5,0.3,5.5,5.2c0.2,1.2,2-0.5,2-0.5v-10
		C220.8,101.3,220.5,100,219.1,100.5"/>
	<path fill="#FFFFFF" stroke="#FFFFFF" stroke-width="0" d="M258.7,22.9c5.8,0,10.4,5.4,10.4,11.2c0,7.8-8.5,12.5-13.5,12.5
		c0,0,5.6,3.5,13.5,15.5c7.9,12,15.2,14.8,22.9,15.1c2.7,0.1,8.9-0.2,15.8-4.2c4.4-2.5,1.8,1,1.2,1.5s-8.4,7.1-20.1,7.1
		c-14.2,0-23.5-11.8-28-18.8s-10.5-13.3-10.5-13.3c-2.4-3.2-5.8-2-5.8-2s0,22.3,0,19.2c0-0.5-0.4,2.9,3.5,3.8c3.9,1,1.2,2.5,1.2,2.5
		L233.2,73c-1,0,0-0.5,0-1.5s4.8-0.2,4.8-5.2l0-32.9c0.8-8.3-6.5-8.8-6.5-8.8c0-2,1.1-2.2,3.6-2.1C241.6,23,255.5,23.1,258.7,22.9z
		 M254.3,26.8l-9.8,0.5v15.5c0,0,4.3,1.1,8,0.8c2.4-0.2,5.6-0.8,7-2.6c0,0,1.7-3.4,1.7-6.1S258.8,27.8,254.3,26.8z"/>
	<path fill="#FFFFFF" stroke="#FFFFFF" stroke-width="0" d="M311.1,22.3c0,0-1.2,0.8-3.5,0.5s-7.3-1.1-10.5-1
		c-8.8,0.2-16.8,7-16.8,14s5.5,11.5,13.5,13.2s12.5,3.8,12.5,10.8c0,6-6.5,8.5-11.2,8.5s-10.8-3.7-13.5-7.8c-2-3-1.5-5.8-1.5-5.8
		l-2.6,1c0,0,0.9,6.2,0.1,9.2c-0.6,2.2,6,8.2,16,8.2c12.2,0,20.2-5.8,20.2-17.8c0-10-12.2-12.2-15.8-13s-10.5-3.2-10.5-9s6-7,10.2-7
		s7.5,1.8,9.2,4.2s1.8,4.8,1.8,4.8l2.2-0.8c0,0-0.8-5.3-0.8-7C310.3,25.8,311.1,22.6,311.1,22.3z"/>
	<path fill="#FFFFFF" stroke="#FFFFFF" stroke-width="0" d="M338.8,23.8c0,0,27.5,0,29,0s4-1.5,5-0.5c0,0,0.5,0.5,0.5,2.5
		c0,3,0,7.5,0,9.3c0,1-2,2.2-2.2,0.5c-1-6.5-2.2-7.3-7-7.3c-2.8,0-6-1-6,2.2s0,34.2,0,36.5c0,3.5,3.8,3.8,5.2,4.5
		c0.5,0.2-0.5,1.8-0.5,1.8h-17.8c0,0-0.8-2,0.8-2.2s4.8-3,4.8-5.2s0-37,0-35s0.5-2.5-2.5-2.5c-6,0-9.7-1.2-11,6.5
		c-0.2,1.5-2.5,3.2-2.5,0c0-1.2,0.2-7.7,0-9.5C334.3,22.8,335.6,22.6,338.8,23.8z"/>
	<path fill="#FFFFFF" stroke="#FFFFFF" stroke-width="0" d="M86.1,83.8l2.2-0.2v9c-3,0-3.2-2.5-3-4.2s-6.8,1.3-12,6.2
		c-4.5,4.2-6,9-6,9c0,0.2,6.5,0.5,7.2-2c0.1-0.2,1.2,0.5,1.2,0.5v8.8c0,0-1.4,1.8-2,1.5c-0.6-0.3,1.8-5.8-4.5-5.5
		c-3,0.1-3.2-0.2-3.2,0s-2.8,11.5-10,19.5c-7.1,7.9-17.5,10.2-23.5,5.2v-2.5c0,0,4,1.9,7.5,1.8c4.3-0.1,10.6-2.1,15-10
		c4.6-8.4,5.8-13.2,5.8-14c0-0.5-1.6-0.2-1.6-0.2l-0.9-2.8h3.9c0,0,1.5-6.2,8.1-11.8C74.8,88.3,79.6,85.1,86.1,83.8z"/>
	<path fill="#FFFFFF" stroke="#FFFFFF" stroke-width="0" d="M134.6,83.3l-0.5,18l-2.2,0.8c0,0-2-11.2-9.2-12s-16-1-20.5,4.2
		s-7.8,13.8-7.8,23c0,13.5,2.5,27,21,27c11,0,10.8-8.5,10.8-7c0,0,0-11.5,0-13.2s-4.2-3.8-7.5-3.8l0.8-2.8h22.5l-0.2,2.2
		c0,0-5.5,1.2-5.5,4.5s0,18.2,0,18.2s-11,4.1-14,6c-5.8,3.8-5.5,3.8-11.8,3.8c-5,0-20-3.5-24-16.5s-3.4-28.7,6-41.7
		c6.5-9,15.2-11.2,24.2-11.2c5,0,9.8,1.2,11.2,1.2s4.2-1.2,5-1.5S134.6,83.3,134.6,83.3z"/>
	<path fill="#FFFFFF" stroke="#FFFFFF" stroke-width="0" d="M141.6,83.8h16.5l-0.2,2.5c0,0-4.5,1-4.5,4.2s0,27.8,0,29.2
		c0,5.8,6.5,9.7,11,9.7s14-3.2,14-12.2s0-26.8,0-27c0-1.8-2-4.2-6.8-4.2c-1.2,0,2-2.5,2-2.5h13.5l-0.5,2.5c0,0-3.5,1.2-3.5,4.5
		c0,3.6-0.2,22.6-0.2,24.8c0,10.8-9,19.5-18.5,19.5c-11.8,0-18.8-5.2-18.8-14.5c0,0,0-29.5,0-31.2s-4.8-3-4.8-3
		C138.8,86.3,141.6,83.8,141.6,83.8z"/>
	<path fill="#FFFFFF" stroke="#FFFFFF" stroke-width="0" d="M232.3,84.1h17.5l-0.8,2c0,0-5-0.8-5,6.2c0,4.5,0,32.2,0,33.8
		s-1.2,2,3,3.2c1.9,0.6,11.2,0.3,13.7-0.8c4.8-2,6-7.7,6-7.7l1.5-0.2c0,0-0.5,10.7-1.2,12.2s-2.3,1-6,0.8
		c-6.2-0.5-28.7,0.2-28.7,0.2l-0.5-1.5c0,0,4.8-0.2,4.8-10.5c0-8.8,0-28.8,0-31.2c0-5.2-3.6-3.5-5.5-4.8
		C230.3,85.3,232.3,84.1,232.3,84.1z"/>
	<path fill="#FFFFFF" stroke="#FFFFFF" stroke-width="0" d="M270.8,84.8c0,0,11,0.1,15-0.5c6.5-1,12.1-0.6,16.8,2.2
		c3.2,2,4.8,6.5,5,9.2c0.5,5.7-3.3,9.6-6.2,11.8c-4.5,3.2-8.5,3.8-18,2.8c-1.2-0.1-1,2-1,3.2s0,11.8,0,13.5c0,1.7,2.5,4.5,6.5,4.5
		c0.2,0-1,2-1,2h-17.2c0,0-0.8-1.2,0.5-1.8s3.5-1,3.8-4c0.2-3,0-34,0-36.8c0-1.5-1.2-4-4.8-4L270.8,84.8z M282.6,105.1
		c0,0-0.2,2.8,8.8,2.5c5.8-0.2,8.5-6.5,8.5-10.5s-3.5-7.5-6.5-8.2s-10.8,0-10.8,0V105.1z"/>
	<path fill="#FFFFFF" stroke="#FFFFFF" stroke-width="0" d="M354.3,133.9l0-1.7c-1,0-4.5-0.3-4.5-5.8c0-2.8,0-34.6,0-37
		c0-2.8,5-3.7,5-3.7l0.3-1.5l-17-0.1l-0.3,2c0,0,4.6,0.4,4.6,3.4c0,10.7,0,14.6,0,14.6h-21.8c-1.2,0-0.8-0.8-0.8-2s0-9.2,0-12.2
		s3.5-3.2,3.5-3.2l0.8-2.5h-15.8l-0.5,2c0,0,4.8-0.5,5,3.2c0.2,2.7,0,35,0,37c0,1.7-1.5,5.5-4.5,5.7l-0.2,1.8c0,0,13.5,0,15.5,0
		c0.2,0,2.2-1.8-0.5-2.5c-2.1-0.6-3.5-2-3.5-5.2c0-3.2,0-16.5,0-17.5s0.2-0.8,1.5-0.8s21,0,21,0s0,16.2,0,18.5c0,5-2.4,4.8-3.5,5.5
		c-1.5,0.9-1.4,1.8,0,2C340,134,354.3,133.9,354.3,133.9z"/>
	<path fill="#FFFFFF" stroke="#FFFFFF" stroke-width="0" d="M55.3,34.8c0-6.9-3.2-9.4-10.4-10c-1.8-0.1,1-2.1,1-2.1
		c9.6-0.1,21.4,0,21.4,0c1,0.2,0.9,0.5,0.1,1.9c-0.6,1.1-6.1-1.1-6.1,9.9l0,0.2v34.5c0,7.5-5.2,12.8-5.2,12.8
		c-3.2,4.2-9.5,8.5-20,8.5c-25,0-24.2-19-24.2-19V35.8c0-6.9-0.2-10.3-7.4-10.9c-1.8-0.1,1-2.1,1-2.1c9.2,0.8,21.9,0,21.9,0
		c1,0.2,0.9,0.5,0.1,1.9c-0.6,1.1-6.1-0.9-6.1,10.1v31.2c0,11,7,17.5,17,17.5s17-5.5,17-14.5L55.3,34.8L55.3,34.8z"/>
	<path fill="#FFFFFF" stroke="#FFFFFF" stroke-width="0" d="M112.3,35.2c-0.1-11,4.3-8.8,4.9-9.9c0.7-1.4,0.9-1.6-0.1-1.9
		c0,0-5,0.8-14.3,0.1c0,0-2.8,2-1,2.1c7.1,0.5,6.7,3.1,6.7,10l-0.1,25c-1.1,0.6-24.4-34.1-24.4-34.1l-2.2-3.2c0,0-1.2,0.5-10.5-0.2
		c0,0-2.8,2-1,2.1c7.1,0.6,6.5,3.1,6.5,10l0,7.1l0,19.5c-0.1,11-5.1,8.7-5.7,9.8c-0.8,1.4-0.9,1.6,0.1,1.9c0,0,5.9-0.6,15.1,0.2
		c0,0,2.8-1.9,1-2.1c-7.1-0.7-6.6-3.2-6.5-10.1l0-25c0,0,23.9,30.2,26.5,39c0,0,0.6,2.2,2,0.6c1-1.2,1.3-0.9,2.1-1.4
		c0.9-0.6,0.9-0.9,0.9-2L112.3,35.2z"/>
	<path fill="#FFFFFF" stroke="#FFFFFF" stroke-width="0" d="M205.3,46.8c1.2-0.8,6.2-1.2,9.2-1.5s5,3.5,5.2,5.5s2.2,0.5,2-0.8
		c-0.5-3.2,0-7.8,0-10.2c0-1.8-1.5-1.2-2-0.5c-1,1.5-2.2,2.5-5,3s-9.5,1-9.5,1l-0.2-0.8v-15h13.8c0,0,6,0.3,7.5,5.3
		c1.2,4,2.8,1,2.2-1.8c-0.6-3.4-1.2-8.8-1.2-8.8l-3.6,0.4h-30c-2.2,0-2.5,2.2-2.5,2.2s6.5-0.2,6.5,8.3l0,31.9c0,5-5.2,4.5-5.2,5.5
		s1,2.2,2,2.2c0,0,28.4,0,29.9,0s4.2,1.5,4.5-0.5c0.3-2.3,1.8-11,1.8-11s0-2.6-2.2,0c-1,1.1-1.5,7-11.5,7.2
		c-8.7,0.2-11.5-0.5-11.8-3.5s0-18,0-18L205.3,46.8z"/>
	<path fill="#FFFFFF" stroke="#FFFFFF" stroke-width="0" d="M406.1,73.6c2.4,0,1.6-0.2,2.4-1.1s0-1.2-1.4-1.1s-3.6-0.6-3.8-4.4
		s0-14.4,0-14.4c0.8-1.2,7.5-13,10.2-18.2l1.5-2.6c1.5-2.5,1.9-4.9,4.6-5.2c0.8-0.1,0.7-0.3,2-0.8c0.8-0.2,1.5-2,0.5-2
		c-1.9,0-14,0-15.1,0c-0.5,0-2.7,0.7-0.9,1.6c0.5,0.2,2.3-0.2,3.8,1c0.7,0.5,2,3.1,0.9,5.2l-10,16.3c0,0-8-14.2-9.5-16.8
		s-1.2-4.4,1.5-4.8c0.8-0.1,0.7-0.3,2-0.8c0.8-0.2,1.5-2,0.5-2c-1.9,0-16.2,0-17.4,0c-0.5,0-2.7,0.7-0.9,1.6c0.5,0.2,3,1,3.6,2
		s13.2,23.5,14.9,27.1c0.7,1.5,0.6,10,0.5,12.5c-0.1,3.6-1.2,4-2.9,4.5c-1.2,0.4-1.8,0.9-1.9,1.6s0.3,0.6,3.1,0.6
		C399.2,73.6,406.1,73.6,406.1,73.6z"/>
	<path fill="#FFFFFF" stroke="#FFFFFF" stroke-width="0" d="M421.3,17.3c-4.5,0-418.5,0-418.5,0l2-2c0,0,414,0,418.5,0L421.3,17.3z"
		/>
	<path fill="#FFFFFF" stroke="#FFFFFF" stroke-width="0" d="M132.8,32.9c0-8.3,4.1-7.4,4.1-7.4c0.8-0.1,0.5-0.9,0.9-1.4
		s0.4-0.8-0.8-0.8c-2.5,0.1-12.1,0-13.9,0l-1.2-0.1c-4,0-2.6,2.2-2.6,2.2s7-0.8,7,8.5l0,32.4c0,5-4.5,4.2-4.5,5.2s-0.7,1.8,0.2,1.8
		c8-0.8,15.2,0.2,15.5,0c0.3-0.3,1.7-1.8,0.5-2c-3.6-0.4-5.2-2-5.2-7.5L132.8,32.9z"/>
	<path fill="#FFFFFF" stroke="#FFFFFF" stroke-width="0" d="M353.6,141.3c-8.4,0-212,0-212,0l2-2c0,0,207.5,0,212,0L353.6,141.3z"/>
	<path fill="#FFFFFF" stroke="#FFFFFF" stroke-width="0" d="M39.2,107.2c-2,2.5-4,5.8-4.5,8.8c-1.7,10.3,4.7,10.8,8.5,10
		c5-1,11.5-7.8,12.8-15.5C57.9,98.2,45.8,98.9,39.2,107.2z M49.2,116.7c-2.5,3.2-4,5.5-8,5s-2.8-6.9,1-12c3-4,7.2-5.2,8.5-2.8
		C52.5,110.4,51.7,113.4,49.2,116.7z"/>
</g>
<g>
	<path fill="#FFFFFF" d="M10.4,207.7l4.7-0.1c0.7,0,1.1,0.1,1.1,0.4c0,0.3-0.4,0.6-1.1,0.7s-1.2,0.2-1.5,0.3c-0.3,0.1-0.6,0.2-1,0.3
		c-0.6,0.3-1,0.8-1,1.5v17.6c0,0.8,0.2,1.4,0.6,1.8c0.4,0.3,1.1,0.5,2.3,0.5H20c0.1,0,0.5-0.1,0.9-0.3c1.3-0.5,2.3-1.7,3.1-3.3
		c0.3-0.7,0.6-1.1,0.8-1.1s0.4,0.2,0.4,0.7c0,0,0,0.1,0,0.1v0.1c-0.6,2.1-0.9,3.7-1,4.7c0,0.4-0.2,0.6-0.5,0.6l-12.8-0.2l-5,0.2
		c-0.7,0-1-0.1-1-0.4s0.3-0.5,0.8-0.7c1-0.2,1.8-0.5,2.3-0.9c0.5-0.4,0.7-1,0.7-1.8V211c0-0.9-0.1-1.4-0.4-1.7
		c-0.3-0.2-0.9-0.5-1.8-0.6c-0.9-0.2-1.3-0.4-1.3-0.8c0-0.3,0.4-0.4,1.1-0.4L10.4,207.7z"/>
	<path fill="#FFFFFF" d="M30.7,231.9l-4.5,0.2c-0.7,0-1.1-0.2-1.1-0.5c0-0.3,0.4-0.6,1.2-0.9c1.5-0.4,2.6-1.4,3.2-2.9
		c2.4-5.5,4.7-11.3,7-17.5c0.3-0.8,0.5-1.4,0.5-1.7c0-0.3,0-0.5,0-0.5c0.9-0.3,1.4-0.5,1.6-0.7c0.1-0.2,0.2-0.3,0.3-0.4
		c0.1-0.2,0.2-0.3,0.3-0.3c0.1,0,0.2,0.2,0.4,0.5c1.8,5.8,4.1,12.4,6.6,19.9c0.5,1.4,1,2.3,1.6,2.8c0.6,0.5,1.3,0.8,2.1,1
		s1.3,0.4,1.3,0.9c0,0.2-0.4,0.4-1.1,0.4l-5.2-0.2l-3.9,0c-0.7,0-1.1-0.1-1.1-0.4c0-0.3,0.4-0.6,1.2-0.7c1.5-0.2,2.3-0.8,2.3-1.7
		c0-0.7-0.5-2.7-1.4-5.9c-0.1-0.3-0.4-0.4-1-0.4H34c-0.3,0-0.5,0.2-0.6,0.7c-1,2.9-1.5,4.6-1.5,5.2s0.2,1,0.6,1.4
		c0.4,0.4,1,0.7,1.7,0.8c0.7,0.2,1.1,0.4,1.1,0.7c0,0.3-0.4,0.4-1.1,0.4L30.7,231.9z M37.7,211.7l-3.4,9c-0.1,0.1-0.1,0.2-0.1,0.3
		c0,0.2,0.3,0.3,0.8,0.3h5.8c0.3,0,0.5-0.1,0.5-0.2c0,0,0-0.2-0.1-0.4l-2.9-8.9c-0.1-0.4-0.3-0.7-0.3-0.7
		C37.9,211.1,37.8,211.3,37.7,211.7z"/>
	<path fill="#FFFFFF" d="M61,232.1l-3.5-0.1l-4.9,0.2c-0.7,0-1.1-0.1-1.1-0.4s0.5-0.5,1.4-0.7c0.9-0.2,1.6-0.5,2.1-0.9
		c0.5-0.4,0.7-1.1,0.7-1.9v-16.8c0-0.9-0.2-1.6-0.6-2c-0.4-0.4-1-0.7-1.9-0.7s-1.3-0.3-1.3-0.7c0-0.3,0.4-0.4,1.1-0.4l3.9,0l4.1-0.2
		c2.8,0,4.9,0.4,6.3,1.3c1.4,0.9,2,2.3,2,4.3c0,1.5-0.4,2.7-1.3,3.6c-0.7,0.7-1.6,1.2-2.5,1.6c-0.1,0.1-0.1,0.1-0.1,0.2
		c0,0.1,0,0.1,0.1,0.2c2.6,0.8,4.2,1.9,4.8,3.5c0.3,0.7,0.5,1.6,0.5,2.6c0,1-0.1,1.9-0.4,2.6c-0.2,0.7-0.6,1.3-1,1.8
		c-0.5,0.5-0.9,0.8-1.2,1C66.3,231.4,63.9,232.1,61,232.1z M60.3,218.1c1.6,0,2.9-0.4,4.1-1.1c0.4-0.2,0.8-0.6,1.1-1.2
		c0.4-0.6,0.5-1.5,0.5-2.6c0-1.1-0.4-2.2-1.1-3.2c-0.7-1-2.1-1.5-4-1.5c-1,0-1.6,0.1-2,0.4c-0.3,0.3-0.5,0.7-0.5,1.3v6.5
		C58.5,217.6,59.1,218.1,60.3,218.1z M61.5,230.5c1.5,0,2.8-0.6,4-1.7c1.2-1.1,1.8-2.4,1.8-4c0-2.2-0.9-3.8-2.8-4.8
		c-1.1-0.6-2.4-0.9-3.9-0.9c-0.7,0-1.3,0.1-1.6,0.4c-0.3,0.3-0.5,0.6-0.5,0.9v7.4c0,1,0.2,1.7,0.7,2.1
		C59.7,230.4,60.5,230.5,61.5,230.5z"/>
	<path fill="#FFFFFF" d="M74,220c0-2.3,0.5-4.4,1.4-6.3c1-1.9,2.4-3.5,4.4-4.7c2-1.2,4.3-1.8,7-1.8c3.3,0,6.2,1.2,8.6,3.5
		c2.4,2.3,3.6,5.2,3.6,8.8c0,3.5-1.1,6.5-3.2,9c-1,1.2-2.3,2.2-4,2.9c-1.6,0.7-3.4,1.1-5.4,1.1c-3.4,0-6.3-1.2-8.8-3.6
		C75.3,226.4,74,223.5,74,220z M95.5,220.3c0-3.4-0.8-6.3-2.4-8.4c-1.6-2.2-3.8-3.2-6.6-3.2c-2.8,0-5,1-6.5,3.1
		c-1.6,2-2.4,4.6-2.4,7.6s0.9,5.7,2.7,8.1c1.8,2.4,4.1,3.6,6.8,3.6c2.7,0,4.8-0.9,6.2-2.8C94.8,226.4,95.5,223.7,95.5,220.3z"/>
	<path fill="#FFFFFF" d="M106.9,207.6l4.3-0.2c5.6,0,8.4,2,8.4,6.1c0,2.7-1.5,4.8-4.4,6.3c-0.2,0.1-0.2,0.2,0,0.5
		c1.1,1.7,1.9,2.9,2.3,3.5c0.4,0.6,1.1,1.5,2.1,2.7c1,1.2,2,2.3,3.1,3.3c0.6,0.5,1.2,0.9,1.8,1c0.6,0.1,1.4,0.2,2.5,0.2
		c0.4,0,0.6,0.1,0.6,0.4c0,0.5-0.3,0.8-1,1c-0.7,0.2-1.3,0.3-2,0.3c-2.3,0-4.1-0.7-5.2-2c-1.9-2.3-3.2-3.9-3.9-5
		c-0.7-1.1-1.3-1.9-1.7-2.7c-0.8-1.3-2.4-2.1-4.7-2.4c-0.4,0-0.6,0.2-0.6,0.7v6.4c0,1.8,0.8,2.9,2.5,3.2c0.8,0.1,1.2,0.4,1.2,0.7
		s-0.4,0.4-1.1,0.4s-1.4,0-2.1-0.1s-1.2-0.1-1.6-0.1l-4.9,0.3c-0.7,0-1.1-0.1-1.1-0.4s0.4-0.5,1.3-0.7c0.9-0.2,1.6-0.4,2-0.9
		c0.4-0.4,0.6-1.1,0.6-2v-15.7c0-1.2-0.2-2.1-0.5-2.6c-0.3-0.6-0.9-0.9-1.8-1.1s-1.3-0.4-1.3-0.7c0-0.3,0.4-0.4,1.1-0.4L106.9,207.6
		z M114.7,218c1-1.1,1.5-2.5,1.5-4.1c0-1.6-0.4-2.9-1.1-3.9c-0.7-1-2-1.5-4-1.5c-0.9,0-1.6,0.2-1.9,0.5c-0.3,0.3-0.5,0.8-0.5,1.5
		c-0.1,2.4-0.1,5-0.1,7.8c0,0.6,0.1,0.9,0.4,1.1c0.3,0.1,0.8,0.2,1.5,0.2C112.3,219.7,113.7,219.1,114.7,218z"/>
	<path fill="#FFFFFF" d="M132,231.9l-4.5,0.2c-0.7,0-1.1-0.2-1.1-0.5c0-0.3,0.4-0.6,1.2-0.9c1.5-0.4,2.6-1.4,3.2-2.9
		c2.4-5.5,4.7-11.3,7-17.5c0.3-0.8,0.5-1.4,0.5-1.7c0-0.3,0-0.5,0-0.5c0.9-0.3,1.4-0.5,1.6-0.7c0.1-0.2,0.2-0.3,0.3-0.4
		c0.1-0.2,0.2-0.3,0.3-0.3c0.1,0,0.2,0.2,0.4,0.5c1.8,5.8,4.1,12.4,6.6,19.9c0.5,1.4,1,2.3,1.6,2.8c0.6,0.5,1.3,0.8,2.1,1
		s1.3,0.4,1.3,0.9c0,0.2-0.4,0.4-1.1,0.4l-5.2-0.2l-3.9,0c-0.7,0-1.1-0.1-1.1-0.4c0-0.3,0.4-0.6,1.2-0.7c1.5-0.2,2.3-0.8,2.3-1.7
		c0-0.7-0.5-2.7-1.4-5.9c-0.1-0.3-0.4-0.4-1-0.4h-7.1c-0.3,0-0.5,0.2-0.6,0.7c-1,2.9-1.5,4.6-1.5,5.2s0.2,1,0.6,1.4
		c0.4,0.4,1,0.7,1.7,0.8c0.7,0.2,1.1,0.4,1.1,0.7c0,0.3-0.4,0.4-1.1,0.4L132,231.9z M139,211.7l-3.4,9c-0.1,0.1-0.1,0.2-0.1,0.3
		c0,0.2,0.3,0.3,0.8,0.3h5.8c0.3,0,0.5-0.1,0.5-0.2c0,0,0-0.2-0.1-0.4l-2.9-8.9c-0.1-0.4-0.3-0.7-0.3-0.7
		C139.2,211.1,139.1,211.3,139,211.7z"/>
	<path fill="#FFFFFF" d="M177.1,207l0,0.3c-0.4,1.6-0.6,2.9-0.6,3.7v0.4c0,0.2-0.1,0.5-0.2,0.8c-0.1,0.3-0.3,0.4-0.4,0.4
		c-0.3,0-0.5-0.5-0.7-1.5c-0.2-1.1-1.4-1.7-3.7-1.7c-2.3,0-3.9,0.1-4.8,0.1c-0.4,0-0.6,0.6-0.6,1.6v17c0,1.6,1,2.6,2.9,2.9
		c0.8,0.1,1.2,0.4,1.2,0.7s-0.4,0.4-1.1,0.4l-4.4-0.2l-4.8,0.2c-0.7,0-1.1-0.1-1.1-0.4s0.4-0.5,1.3-0.7c1.9-0.3,2.8-1.3,2.8-2.9v-17
		c0-1-0.2-1.5-0.7-1.6c-0.5-0.1-1.4-0.1-2.8-0.1h-1.8c-0.6,0-1.3,0.1-1.8,0.4c-0.6,0.2-1,0.6-1.2,1c-0.2,0.4-0.5,0.7-0.8,1.1
		c-0.3,0.3-0.6,0.5-0.8,0.5c-0.2,0-0.3-0.1-0.3-0.4c0-0.3,0.1-0.6,0.2-0.8c0.5-1.1,0.9-2.5,1.2-4.1c0.1-0.6,0.3-0.9,0.6-0.9
		c0.2,0,0.5,0.4,0.9,1.2c0.3,0.5,1.1,0.7,2.6,0.7h14.2c0.9,0,1.7-0.2,2.2-0.5c0.2-0.1,0.4-0.3,0.7-0.6c0.3-0.2,0.5-0.4,0.7-0.6
		c0.2-0.1,0.4-0.2,0.5-0.2C177,206.1,177.1,206.4,177.1,207z"/>
	<path fill="#FFFFFF" d="M178.8,220c0-2.3,0.5-4.4,1.4-6.3c1-1.9,2.4-3.5,4.4-4.7c2-1.2,4.3-1.8,7-1.8c3.3,0,6.2,1.2,8.6,3.5
		c2.4,2.3,3.6,5.2,3.6,8.8c0,3.5-1.1,6.5-3.2,9c-1,1.2-2.3,2.2-4,2.9c-1.6,0.7-3.4,1.1-5.4,1.1c-3.4,0-6.3-1.2-8.8-3.6
		C180,226.4,178.8,223.5,178.8,220z M200.3,220.3c0-3.4-0.8-6.3-2.4-8.4c-1.6-2.2-3.8-3.2-6.6-3.2c-2.8,0-5,1-6.5,3.1
		c-1.6,2-2.4,4.6-2.4,7.6s0.9,5.7,2.7,8.1c1.8,2.4,4.1,3.6,6.8,3.6c2.7,0,4.8-0.9,6.2-2.8C199.5,226.4,200.3,223.7,200.3,220.3z"/>
	<path fill="#FFFFFF" d="M211.6,207.6l4.3-0.2c5.6,0,8.4,2,8.4,6.1c0,2.7-1.5,4.8-4.4,6.3c-0.2,0.1-0.2,0.2,0,0.5
		c1.1,1.7,1.9,2.9,2.3,3.5c0.4,0.6,1.1,1.5,2.1,2.7c1,1.2,2,2.3,3.1,3.3c0.6,0.5,1.2,0.9,1.8,1c0.6,0.1,1.4,0.2,2.5,0.2
		c0.4,0,0.6,0.1,0.6,0.4c0,0.5-0.3,0.8-1,1c-0.7,0.2-1.3,0.3-2,0.3c-2.3,0-4.1-0.7-5.2-2c-1.9-2.3-3.2-3.9-3.9-5
		c-0.7-1.1-1.3-1.9-1.7-2.7c-0.8-1.3-2.4-2.1-4.7-2.4c-0.4,0-0.6,0.2-0.6,0.7v6.4c0,1.8,0.8,2.9,2.5,3.2c0.8,0.1,1.2,0.4,1.2,0.7
		s-0.4,0.4-1.1,0.4s-1.4,0-2.1-0.1s-1.2-0.1-1.6-0.1l-4.9,0.3c-0.7,0-1.1-0.1-1.1-0.4s0.4-0.5,1.3-0.7c0.9-0.2,1.6-0.4,2-0.9
		c0.4-0.4,0.6-1.1,0.6-2v-15.7c0-1.2-0.2-2.1-0.5-2.6c-0.3-0.6-0.9-0.9-1.8-1.1s-1.3-0.4-1.3-0.7c0-0.3,0.4-0.4,1.1-0.4L211.6,207.6
		z M219.4,218c1-1.1,1.5-2.5,1.5-4.1c0-1.6-0.4-2.9-1.1-3.9c-0.7-1-2-1.5-4-1.5c-0.9,0-1.6,0.2-1.9,0.5c-0.3,0.3-0.5,0.8-0.5,1.5
		c-0.1,2.4-0.1,5-0.1,7.8c0,0.6,0.1,0.9,0.4,1.1c0.3,0.1,0.8,0.2,1.5,0.2C217,219.7,218.4,219.1,219.4,218z"/>
	<path fill="#FFFFFF" d="M242.8,231.9l-4.8,0.2c-0.7,0-1.1-0.1-1.1-0.4s0.4-0.5,1.2-0.7c1.9-0.3,2.9-1.4,2.9-3.1v-5.5
		c0-0.7-0.3-1.6-0.9-2.8l-4.4-7.2c-1.4-2.2-2.5-3.4-3.3-3.7c-0.8-0.2-1.3-0.5-1.3-0.8s0.4-0.4,1.1-0.4l4.4,0.1l3-0.1
		c0.7,0,1.1,0.1,1.1,0.4c0,0.3-0.4,0.6-1.2,0.8c-0.8,0.2-1.2,0.5-1.2,0.9c0,0.3,0.2,0.8,0.5,1.3l3.4,6.2c0.5,0.9,0.9,1.4,1,1.4
		c0.4,0,1.9-2.2,4.4-6.6c0.4-0.7,0.7-1.4,0.7-1.9c0-0.7-0.5-1.2-1.5-1.3c-0.3,0-0.5-0.1-0.8-0.3c-0.3-0.1-0.4-0.3-0.4-0.4
		c0-0.3,0.4-0.4,1.1-0.4l2.8,0l3.9-0.1c0.7,0,1.1,0.1,1.1,0.4s-0.7,0.6-2,1c-0.6,0.2-1.1,0.5-1.5,0.9c-1,1.1-3,4.2-5.9,9.2
		c-0.4,0.8-0.7,1.3-0.8,1.7c-0.1,0.3-0.1,0.9-0.1,1.7v5.5c0,0.8,0.3,1.5,0.8,2.1c0.5,0.5,1.2,0.9,2.1,1c0.9,0.2,1.3,0.4,1.3,0.7
		s-0.4,0.4-1.1,0.4L242.8,231.9z"/>
	<path fill="#FFFFFF" d="M263.7,228.1c0.7,2.1,2.4,3.2,5,3.2c1.3,0,2.3-0.4,3-1.2c0.7-0.8,1.1-1.8,1.1-3.1c0-2.1-1.9-4.4-5.7-6.9
		c-1.5-1-2.7-2-3.5-3.1c-0.8-1-1.2-2.3-1.2-3.8s0.7-2.9,2.1-4.1c1.4-1.2,3.2-1.8,5.4-1.8c1.2,0,2.3,0.1,3.1,0.4
		c0.8,0.2,1.3,0.4,1.3,0.4c0.3,0,0.6,0.5,0.7,1.4c0.1,1,0.2,1.9,0.2,2.5c0,0.7-0.1,1-0.3,1c-0.7,0-1.2-0.3-1.3-1
		c-0.2-1.1-0.6-1.9-1.4-2.5c-0.8-0.6-1.7-0.9-2.9-0.9c-1.1,0-2.1,0.4-2.9,1.1c-0.8,0.7-1.3,1.7-1.3,2.9c0,1.1,0.6,2.2,1.9,3.2
		c1,0.9,2.1,1.6,3.1,2.3c3.8,2.5,5.7,5.1,5.7,8c0,1.7-0.6,3.2-1.9,4.6c-1.3,1.3-3.2,2-5.8,2c-2.1,0-3.7-0.3-5-0.9
		c-0.4-0.2-0.7-0.4-0.8-0.6c-0.4-0.9-0.7-2.4-0.7-4.3c0-0.2,0.1-0.4,0.2-0.7c0.2-0.3,0.3-0.4,0.6-0.4S263.2,226.4,263.7,228.1z"/>
	<path fill="#FFFFFF" d="M293.1,219.4l0.1,2.5c0,0.4-0.1,0.6-0.3,0.6c-0.4,0-0.7-0.3-0.9-0.9c-0.4-1.1-0.9-1.7-1.7-1.7h-3.5
		c-0.5,0-0.8,0.1-1,0.2s-0.3,0.4-0.3,0.8v7.2c0,0.9,0.2,1.6,0.6,1.9c0.4,0.4,1,0.6,1.9,0.6h3.9c1.3,0,2.2-0.2,2.8-0.6
		c0.5-0.4,1.1-1.2,1.6-2.4c0.1-0.3,0.4-0.4,0.6-0.4c0.3,0,0.4,0.2,0.4,0.4c0,1-0.2,2.3-0.6,3.8c-0.1,0.4-0.3,0.6-0.5,0.6l-12.2-0.2
		l-4.3,0.2c-0.7,0-1.1-0.1-1.1-0.4s0.4-0.5,1.3-0.7c0.9-0.2,1.6-0.4,2-0.9c0.4-0.4,0.7-1.1,0.7-1.9v-16.8c0-0.9-0.2-1.5-0.5-1.9
		c-0.4-0.4-1-0.7-1.9-0.8c-0.9-0.2-1.3-0.4-1.3-0.8c0-0.3,0.4-0.4,1.1-0.4l6.6,0.1l8.3-0.1c0.4,0,0.6,0.1,0.7,0.3
		c0.4,2,0.6,3.3,0.6,3.7s-0.2,0.7-0.5,0.7c-0.2,0-0.3-0.1-0.4-0.4c-0.4-1.2-0.6-1.9-0.8-2.1c-0.6-0.7-1.4-1-2.5-1h-4.9
		c-0.2,0-0.5,0.1-0.9,0.4c-0.3,0.2-0.5,0.5-0.5,0.8v7.9c0,0.2,0.1,0.4,0.2,0.6c0.1,0.2,0.3,0.2,0.5,0.2h3.6c1.1,0,1.9-0.5,2.3-1.5
		c0-0.1,0.2-0.2,0.3-0.4c0.2-0.2,0.3-0.2,0.4-0.2c0.1,0,0.2,0.1,0.3,0.2c0.1,0.1,0.2,0.3,0.2,0.4L293.1,219.4z"/>
	<path fill="#FFFFFF" d="M303.7,207.6l4.3-0.2c5.6,0,8.4,2,8.4,6.1c0,2.7-1.5,4.8-4.4,6.3c-0.2,0.1-0.2,0.2,0,0.5
		c1.1,1.7,1.9,2.9,2.3,3.5c0.4,0.6,1.1,1.5,2.1,2.7c1,1.2,2,2.3,3.1,3.3c0.6,0.5,1.2,0.9,1.8,1c0.6,0.1,1.4,0.2,2.5,0.2
		c0.4,0,0.6,0.1,0.6,0.4c0,0.5-0.3,0.8-1,1c-0.7,0.2-1.3,0.3-2,0.3c-2.3,0-4.1-0.7-5.2-2c-1.9-2.3-3.2-3.9-3.9-5
		c-0.7-1.1-1.3-1.9-1.7-2.7c-0.8-1.3-2.4-2.1-4.7-2.4c-0.4,0-0.6,0.2-0.6,0.7v6.4c0,1.8,0.8,2.9,2.5,3.2c0.8,0.1,1.2,0.4,1.2,0.7
		s-0.4,0.4-1.1,0.4s-1.4,0-2.1-0.1s-1.2-0.1-1.6-0.1l-4.9,0.3c-0.7,0-1.1-0.1-1.1-0.4s0.4-0.5,1.3-0.7c0.9-0.2,1.6-0.4,2-0.9
		c0.4-0.4,0.6-1.1,0.6-2v-15.7c0-1.2-0.2-2.1-0.5-2.6c-0.3-0.6-0.9-0.9-1.8-1.1s-1.3-0.4-1.3-0.7c0-0.3,0.4-0.4,1.1-0.4L303.7,207.6
		z M311.5,218c1-1.1,1.5-2.5,1.5-4.1c0-1.6-0.4-2.9-1.1-3.9c-0.7-1-2-1.5-4-1.5c-0.9,0-1.6,0.2-1.9,0.5c-0.3,0.3-0.5,0.8-0.5,1.5
		c-0.1,2.4-0.1,5-0.1,7.8c0,0.6,0.1,0.9,0.4,1.1c0.3,0.1,0.8,0.2,1.5,0.2C309.1,219.7,310.5,219.1,311.5,218z"/>
	<path fill="#FFFFFF" d="M339.6,207.6l3.7,0l4.3-0.1c0.7,0,1.1,0.1,1.1,0.4c0,0.3-0.4,0.6-1.2,0.8c-0.8,0.2-1.6,0.6-2.2,1.2
		c-0.6,0.6-1.1,1.3-1.4,2l-7,17c0,0-0.1,0.2-0.2,0.5c-0.1,0.3-0.2,0.6-0.3,0.9c-0.1,0.3-0.2,0.6-0.4,1c-0.3,0.7-0.5,1.1-0.7,1.1
		c-0.1,0-0.5-0.9-1.1-2.6l-6.8-18.3c-0.5-1.5-1.4-2.4-2.6-2.7c-0.8-0.2-1.2-0.5-1.2-0.8s0.4-0.4,1.1-0.4l4.6,0.1l3.8-0.1
		c0.7,0,1.1,0.1,1.1,0.4c0,0.3-0.4,0.6-1.1,0.7c-0.7,0.1-1.3,0.3-1.8,0.6c-0.5,0.3-0.7,0.6-0.7,1s0.1,1,0.3,1.6l4.7,12.5
		c0.2,0.7,0.5,1,0.7,1c0.1,0,0.4-0.3,0.7-1l5.3-13.1c0.2-0.4,0.3-0.8,0.3-1.2c0-0.5-0.8-1-2.5-1.5c-0.8-0.2-1.2-0.5-1.2-0.7
		C338.5,207.8,338.9,207.6,339.6,207.6z"/>
	<path fill="#FFFFFF" d="M355,231.9l-4.8,0.2c-0.7,0-1.1-0.1-1.1-0.4s0.5-0.5,1.4-0.7c0.9-0.2,1.6-0.4,2.1-0.9
		c0.5-0.4,0.7-1,0.7-1.9v-16.9c0-0.9-0.2-1.5-0.5-1.9c-0.4-0.4-1-0.6-1.9-0.8c-0.9-0.2-1.3-0.4-1.3-0.8c0-0.3,0.4-0.4,1.1-0.4
		l4.4,0.1l4.1-0.1c0.7,0,1.1,0.1,1.1,0.4c0,0.3-0.4,0.6-1.3,0.8c-0.9,0.2-1.5,0.4-1.9,0.8s-0.6,1-0.6,1.8v16.9
		c0,0.8,0.2,1.5,0.7,1.9c0.5,0.4,1.2,0.7,2.1,0.9c0.9,0.2,1.4,0.4,1.4,0.7s-0.4,0.4-1.1,0.4L355,231.9z"/>
	<path fill="#FFFFFF" d="M384.3,226.8c-0.2,1.9-0.6,3.3-1.3,4.2c-0.1,0.2-0.8,0.5-2.2,0.9c-1.4,0.4-3.3,0.6-5.9,0.6
		c-3.4,0-6.2-1.2-8.5-3.7c-2.3-2.5-3.5-5.5-3.5-9c0-3.5,1.3-6.5,4-8.9c2.7-2.5,5.9-3.7,9.6-3.7c1.7,0,3.1,0.1,4,0.4
		c0.9,0.3,1.8,0.5,2.8,0.7c0.3,0,0.5,0.6,0.6,1.6c0.1,1,0.2,1.9,0.2,2.7c0,0.8,0,1.3-0.1,1.5c-0.1,0.2-0.2,0.3-0.4,0.3
		c-0.5,0-0.8-0.5-1-1.4c-0.1-1.1-0.6-2.1-1.3-2.7c-1.3-1.3-3.2-1.9-5.7-1.9s-4.7,1.1-6.4,3.2c-1.8,2.1-2.6,4.6-2.6,7.4
		c0,2.1,0.4,4,1.1,5.9c0.7,1.9,1.9,3.4,3.3,4.6c1.5,1.2,3.2,1.8,5,1.8c3.1,0,5.4-1.5,6.9-4.5c0.1-0.2,0.3-0.3,0.5-0.5
		c0.2-0.1,0.4-0.2,0.4-0.2c0,0,0,0,0.1,0C384.2,226.1,384.3,226.3,384.3,226.8z"/>
	<path fill="#FFFFFF" d="M400.4,219.4l0.1,2.5c0,0.4-0.1,0.6-0.3,0.6c-0.4,0-0.7-0.3-0.9-0.9c-0.4-1.1-0.9-1.7-1.7-1.7h-3.5
		c-0.5,0-0.8,0.1-1,0.2s-0.3,0.4-0.3,0.8v7.2c0,0.9,0.2,1.6,0.6,1.9c0.4,0.4,1,0.6,1.9,0.6h3.9c1.3,0,2.2-0.2,2.8-0.6
		c0.5-0.4,1.1-1.2,1.6-2.4c0.1-0.3,0.4-0.4,0.6-0.4c0.3,0,0.4,0.2,0.4,0.4c0,1-0.2,2.3-0.6,3.8c-0.1,0.4-0.3,0.6-0.5,0.6l-12.2-0.2
		l-4.3,0.2c-0.7,0-1.1-0.1-1.1-0.4s0.4-0.5,1.3-0.7c0.9-0.2,1.6-0.4,2-0.9c0.4-0.4,0.7-1.1,0.7-1.9v-16.8c0-0.9-0.2-1.5-0.5-1.9
		c-0.4-0.4-1-0.7-1.9-0.8c-0.9-0.2-1.3-0.4-1.3-0.8c0-0.3,0.4-0.4,1.1-0.4l6.6,0.1l8.3-0.1c0.4,0,0.6,0.1,0.7,0.3
		c0.4,2,0.6,3.3,0.6,3.7s-0.2,0.7-0.5,0.7c-0.2,0-0.3-0.1-0.4-0.4c-0.4-1.2-0.6-1.9-0.8-2.1c-0.6-0.7-1.4-1-2.5-1h-4.9
		c-0.2,0-0.5,0.1-0.9,0.4c-0.3,0.2-0.5,0.5-0.5,0.8v7.9c0,0.2,0.1,0.4,0.2,0.6c0.1,0.2,0.3,0.2,0.5,0.2h3.6c1.1,0,1.9-0.5,2.3-1.5
		c0-0.1,0.2-0.2,0.3-0.4c0.2-0.2,0.3-0.2,0.4-0.2c0.1,0,0.2,0.1,0.3,0.2c0.1,0.1,0.2,0.3,0.2,0.4L400.4,219.4z"/>
	<path fill="#FFFFFF" d="M408.4,228.1c0.7,2.1,2.4,3.2,5,3.2c1.3,0,2.3-0.4,3-1.2c0.7-0.8,1.1-1.8,1.1-3.1c0-2.1-1.9-4.4-5.7-6.9
		c-1.5-1-2.7-2-3.5-3.1c-0.8-1-1.2-2.3-1.2-3.8s0.7-2.9,2.1-4.1c1.4-1.2,3.2-1.8,5.4-1.8c1.2,0,2.3,0.1,3.1,0.4
		c0.8,0.2,1.3,0.4,1.3,0.4c0.3,0,0.6,0.5,0.7,1.4c0.1,1,0.2,1.9,0.2,2.5c0,0.7-0.1,1-0.3,1c-0.7,0-1.2-0.3-1.3-1
		c-0.2-1.1-0.6-1.9-1.4-2.5c-0.8-0.6-1.7-0.9-2.9-0.9c-1.1,0-2.1,0.4-2.9,1.1c-0.8,0.7-1.3,1.7-1.3,2.9c0,1.1,0.6,2.2,1.9,3.2
		c1,0.9,2.1,1.6,3.1,2.3c3.8,2.5,5.7,5.1,5.7,8c0,1.7-0.6,3.2-1.9,4.6c-1.3,1.3-3.2,2-5.8,2c-2.1,0-3.7-0.3-5-0.9
		c-0.4-0.2-0.7-0.4-0.8-0.6c-0.4-0.9-0.7-2.4-0.7-4.3c0-0.2,0.1-0.4,0.2-0.7c0.2-0.3,0.3-0.4,0.6-0.4S407.9,226.4,408.4,228.1z"/>
</g>
</svg>
